<svg width="24" height="24" viewBox="0 0 24 24" fill="none" xmlns="http://www.w3.org/2000/svg">
<path d="M5.35186 12.4582C5.11906 12.427 4.96306 12.3478 4.88626 12.2254C4.77106 12.0382 4.83346 11.7454 4.86706 11.6494C4.92946 11.4742 4.83826 11.2822 4.66546 11.2198C4.49026 11.1574 4.29826 11.2462 4.23346 11.4214C4.20946 11.4862 4.01026 12.0766 4.30786 12.5734C4.43506 12.7846 4.70386 13.051 5.25826 13.1278C5.27266 13.1278 5.28946 13.1302 5.30386 13.1302C5.46946 13.1302 5.61346 13.0078 5.63746 12.8398C5.66386 12.655 5.53426 12.487 5.34946 12.4606L5.35186 12.4582ZM9.18946 18.343C8.97106 18.4342 8.79826 18.4438 8.67106 18.3766C8.47666 18.271 8.38306 17.9878 8.36386 17.887C8.33026 17.7046 8.15506 17.5846 7.97266 17.6182C7.79026 17.6518 7.66786 17.827 7.70146 18.0094C7.71346 18.079 7.83826 18.6886 8.34706 18.9646C8.46946 19.0318 8.63986 19.0918 8.86066 19.0918C9.02866 19.0918 9.22306 19.0582 9.44866 18.9646C9.62146 18.8926 9.70306 18.6958 9.63106 18.5254C9.55906 18.3526 9.36226 18.271 9.19186 18.343H9.18946ZM6.81586 6.91898C6.74626 6.91898 6.12466 6.90698 5.74306 7.34378C5.58226 7.53098 5.40946 7.86698 5.50786 8.41898C5.53666 8.58218 5.67826 8.69738 5.83906 8.69738C5.85826 8.69738 5.87746 8.69738 5.89906 8.69258C6.08146 8.65898 6.20386 8.48618 6.17026 8.30138C6.12946 8.06858 6.15586 7.89578 6.24946 7.78778C6.39346 7.61978 6.69106 7.58858 6.79186 7.59098C6.97666 7.59578 7.13266 7.45178 7.13746 7.26698C7.14466 7.08218 6.99826 6.92618 6.81346 6.91898H6.81586ZM12.8231 10.0822C11.7479 10.0822 10.8719 10.9582 10.8719 12.0334C10.8719 13.1086 11.7479 13.9846 12.8231 13.9846C13.8983 13.9846 14.7743 13.1086 14.7743 12.0334C14.7743 10.9582 13.8983 10.0822 12.8231 10.0822ZM12.8231 13.3126C12.1175 13.3126 11.5439 12.739 11.5439 12.0334C11.5439 11.3278 12.1175 10.7542 12.8231 10.7542C13.5287 10.7542 14.1023 11.3278 14.1023 12.0334C14.1023 12.739 13.5287 13.3126 12.8231 13.3126ZM8.33746 10.3846C8.52946 9.65258 8.02786 8.85338 7.97026 8.76458C7.86946 8.60858 7.66066 8.56538 7.50466 8.66618C7.34866 8.76698 7.30546 8.97578 7.40626 9.13178C7.50946 9.29258 7.78546 9.83498 7.68706 10.2142C7.64626 10.3678 7.55026 10.4782 7.38226 10.567C7.21666 10.6534 7.15426 10.855 7.24066 11.0206C7.30066 11.1358 7.41826 11.2006 7.53826 11.2006C7.59106 11.2006 7.64386 11.1886 7.69426 11.1622C8.02786 10.9894 8.25106 10.7206 8.33746 10.3846Z" fill="#484C52"/>
<path d="M16.2576 9.97939H20.1456C20.3304 9.97939 20.4816 9.82819 20.4816 9.64339V8.32819C21.0504 8.16259 21.4248 7.60099 21.3312 7.00099C21.2304 6.34819 20.616 5.89939 19.9632 6.00019C19.3104 6.10099 18.8616 6.71539 18.9624 7.36819C19.0344 7.84099 19.3776 8.20099 19.8072 8.32819V9.30739H16.2816C16.2456 9.22339 16.1976 9.14419 16.1328 9.07459L15.8448 8.76979C15.696 8.61139 15.4944 8.52259 15.2784 8.52019C15.0624 8.52019 14.8584 8.60179 14.7048 8.75539L14.3736 9.08899L13.8672 8.88019V8.31379C13.8672 7.87699 13.512 7.52179 13.0752 7.52179H12.5688C12.132 7.52179 11.7768 7.87699 11.7768 8.31379V8.88019L11.3088 9.07459L11.1816 8.95699V7.02739H17.1312C17.316 7.02739 17.4648 6.87859 17.4672 6.69379L17.4816 5.34259C18.0528 5.17699 18.4272 4.61539 18.3336 4.01299C18.2328 3.36019 17.6184 2.91139 16.9656 3.01219C16.3128 3.11299 15.864 3.72739 15.9648 4.38019C16.0368 4.85059 16.3776 5.21059 16.8072 5.34019L16.7952 6.35299H11.1768V5.63059C11.1768 4.46659 10.4856 3.22579 9.33118 3.16099C8.45518 3.11059 7.77598 3.49699 7.37038 4.27939C7.19998 4.60819 7.11598 4.94179 7.07518 5.16259C5.63998 5.45539 4.70158 6.05059 4.28158 6.93379C3.82798 7.88899 4.12558 8.89699 4.32478 9.38419C3.28558 10.0562 2.72398 10.8434 2.65198 11.729C2.55358 12.965 3.45598 13.9922 3.85918 14.3834C3.44638 15.4538 3.45838 16.3226 3.89278 16.9658C4.43518 17.7698 5.47438 17.9642 5.99998 18.0098C6.00478 18.1154 6.00958 18.221 6.02398 18.3266C6.15118 19.2698 6.69118 20.0858 7.50478 20.5634C7.90078 20.7962 8.29438 20.9138 8.67838 20.9138C9.19198 20.9138 9.68638 20.705 10.1448 20.2922C10.8 19.7042 11.1744 18.8426 11.1744 17.9306V17.7314H16.8336V18.6626C16.2768 18.8378 15.9144 19.3922 16.0056 19.985C16.0968 20.5754 16.608 21.0002 17.1888 21.0002C17.2488 21.0002 17.3112 20.9954 17.3736 20.9858C18.0264 20.885 18.4752 20.2706 18.3744 19.6178C18.3 19.1378 17.9472 18.7706 17.5056 18.6482V17.3954C17.5056 17.2106 17.3544 17.0594 17.1696 17.0594H11.1744V15.2834L11.3352 15.1346L11.82 15.3314L11.8248 15.7634C11.8296 16.193 12.1872 16.5458 12.6168 16.5458H13.08C13.5168 16.5458 13.872 16.1906 13.872 15.7538V15.2642L14.3904 15.0506L14.7456 15.3722C15.0648 15.6602 15.5472 15.6434 15.8472 15.3338L16.128 15.0434C16.188 14.981 16.2312 14.9114 16.2672 14.837H19.7952V15.989C19.2288 16.157 18.8568 16.7162 18.9504 17.3162C19.0416 17.9066 19.5528 18.3314 20.1336 18.3314C20.1936 18.3314 20.256 18.3266 20.3184 18.317C20.9712 18.2162 21.42 17.6018 21.3192 16.949C21.2448 16.4762 20.9016 16.1114 20.4696 15.9866V14.501C20.4696 14.3162 20.3184 14.165 20.1336 14.165H16.2768C16.2408 14.0858 16.1928 14.0114 16.1304 13.9466L15.8304 13.6346L16.0896 13.037H16.5744C17.0112 13.037 17.3664 12.6818 17.3664 12.245V11.837C17.3664 11.4002 17.0112 11.045 16.5744 11.045H15.984L15.7632 10.5314L16.1136 10.1666C16.1688 10.109 16.2096 10.0466 16.2432 9.97939H16.2576ZM19.6296 7.26259C19.608 7.12339 19.6416 6.98419 19.7256 6.87139C19.8096 6.75859 19.9296 6.68419 20.0688 6.66259C20.0952 6.65779 20.124 6.65539 20.1504 6.65539C20.2608 6.65539 20.3688 6.69139 20.46 6.75619C20.5728 6.84019 20.6472 6.96019 20.6688 7.09939C20.6904 7.23859 20.6568 7.37779 20.5728 7.49059C20.4888 7.60339 20.3688 7.67779 20.2296 7.69939C20.0904 7.72099 19.9512 7.68739 19.8384 7.60339C19.7256 7.51939 19.6512 7.39939 19.6296 7.26019V7.26259ZM16.6368 4.27939C16.6152 4.14019 16.6488 4.00099 16.7328 3.88819C16.8168 3.77539 16.9368 3.70099 17.076 3.67939C17.1024 3.67459 17.1312 3.67219 17.1576 3.67219C17.268 3.67219 17.376 3.70819 17.4672 3.77299C17.58 3.85699 17.6544 3.97699 17.676 4.11619C17.6976 4.25539 17.664 4.39459 17.58 4.50739C17.496 4.62019 17.376 4.69459 17.2368 4.71619C17.0976 4.73779 16.9584 4.70419 16.8456 4.62019C16.7328 4.53619 16.6584 4.41619 16.6368 4.27699V4.27939ZM17.1216 19.2842C17.148 19.2794 17.1768 19.277 17.2032 19.277C17.3136 19.277 17.4216 19.313 17.5128 19.3778C17.6256 19.4618 17.7 19.5818 17.7216 19.721C17.7648 20.0066 17.568 20.2754 17.2824 20.321C17.1432 20.3426 17.004 20.309 16.8912 20.225C16.7784 20.141 16.704 20.021 16.6824 19.8818C16.6392 19.5962 16.836 19.3274 17.1216 19.2818V19.2842ZM20.1504 16.613C20.2608 16.613 20.3688 16.649 20.46 16.7138C20.5728 16.7978 20.6472 16.9178 20.6688 17.057C20.6904 17.1962 20.6568 17.3354 20.5728 17.4482C20.4888 17.561 20.3688 17.6354 20.2296 17.657C19.944 17.7026 19.6752 17.5034 19.6296 17.2178C19.608 17.0786 19.6416 16.9394 19.7256 16.8266C19.8096 16.7138 19.9296 16.6394 20.0688 16.6178C20.0952 16.613 20.124 16.6106 20.1504 16.6106V16.613ZM10.512 17.933C10.512 18.6554 10.2168 19.3322 9.70558 19.7954C9.12718 20.3162 8.52238 20.3786 7.85518 19.9874C7.22158 19.613 6.79918 18.977 6.69838 18.2402C6.59518 17.4818 6.83998 16.7306 7.37278 16.181C7.46398 16.085 7.56718 15.989 7.67518 15.893C7.81438 15.7706 7.82638 15.557 7.70398 15.4178C7.58158 15.2786 7.36798 15.2666 7.22878 15.389C7.10878 15.497 6.99358 15.605 6.89038 15.713C6.44878 16.169 6.16558 16.7354 6.05758 17.3426C5.64478 17.3042 4.83838 17.1554 4.45918 16.5938C4.17118 16.1666 4.16638 15.5546 4.44238 14.7722C4.87918 14.9906 5.63998 15.3146 6.32638 15.3146C6.59998 15.3146 6.86158 15.2618 7.08718 15.1322C7.52158 14.8802 7.73278 14.4026 7.72078 13.7138V13.709C7.71358 13.3226 7.61518 12.9458 7.43278 12.617L6.92878 11.705C6.83998 11.5418 6.63358 11.4842 6.47278 11.573C6.31198 11.6618 6.25198 11.8682 6.34078 12.029L6.84478 12.941C6.97438 13.1738 7.04398 13.445 7.04878 13.721V13.7282C7.05838 14.1554 6.95758 14.4314 6.75118 14.5538C6.24958 14.8466 5.09518 14.3882 4.46638 14.0234C4.31038 13.889 3.24478 12.9146 3.33598 11.789C3.39358 11.0642 3.93358 10.397 4.93918 9.80899C5.09758 9.71779 5.15038 9.51379 5.06398 9.35539C5.05678 9.34339 4.43758 8.20339 4.90558 7.22419C5.23918 6.52579 6.05518 6.05299 7.32238 5.81059C7.63438 6.01459 8.54398 6.63379 9.02878 7.28179C9.09598 7.37059 9.19678 7.41619 9.29758 7.41619C9.36718 7.41619 9.43918 7.39459 9.49918 7.34899C9.64798 7.23859 9.67678 7.02739 9.56638 6.87859C9.35758 6.60019 9.08878 6.33139 8.81758 6.09379L9.55438 5.22499C9.67438 5.08339 9.65758 4.87219 9.51598 4.74979C9.37438 4.62979 9.16318 4.64659 9.04078 4.78819L8.29438 5.66899C8.07598 5.50339 7.88158 5.37139 7.74958 5.28259C7.83118 4.83379 8.14318 3.76819 9.30718 3.83539C10.032 3.87619 10.5192 4.79779 10.5192 5.63299V8.50819C10.272 8.46499 10.0104 8.53939 9.82078 8.73139L9.52078 9.03379C9.36958 9.18499 9.28798 9.38659 9.29278 9.60019C9.29518 9.81379 9.38158 10.013 9.53518 10.1618L9.87838 10.4906L9.65518 11.0402L9.07678 11.033C8.86318 11.0282 8.66158 11.1122 8.51038 11.261C8.35918 11.4098 8.27518 11.6114 8.27518 11.825V12.353C8.27518 12.7778 8.60638 13.1234 9.03118 13.145L9.62398 13.1738L9.81838 13.6154L9.45598 14.0426C9.18718 14.3618 9.21118 14.837 9.51358 15.1274L9.88318 15.4826C10.0584 15.6506 10.2936 15.7202 10.5216 15.6938V17.933H10.512ZM15.852 11.7194H16.5888C16.6536 11.7194 16.7088 11.7722 16.7088 11.8394V12.2474C16.7088 12.3122 16.656 12.3674 16.5888 12.3674H15.9576C15.7776 12.3674 15.6168 12.473 15.5448 12.6386L15.168 13.505C15.096 13.673 15.1296 13.865 15.2568 13.997L15.66 14.417C15.7056 14.4626 15.7056 14.537 15.66 14.5826L15.3792 14.873C15.3336 14.9186 15.2616 14.921 15.2136 14.8778L14.7528 14.4626C14.6256 14.3474 14.4384 14.3162 14.28 14.381L13.4928 14.705C13.3224 14.7746 13.2144 14.9378 13.2144 15.1226V15.761C13.2144 15.8258 13.1616 15.881 13.0944 15.881H12.6312C12.5664 15.881 12.5136 15.8282 12.5112 15.7634L12.504 15.185C12.504 15.0026 12.3912 14.8418 12.2232 14.7746L11.4696 14.4674C11.4144 14.4458 11.3568 14.4338 11.2992 14.4338C11.1888 14.4338 11.0784 14.4746 10.992 14.5538L10.5024 15.005C10.4568 15.0482 10.3848 15.0482 10.3392 15.005L9.96958 14.6498C9.92398 14.6066 9.91918 14.5346 9.95998 14.4866L10.4112 13.9514C10.5216 13.8218 10.548 13.6346 10.4784 13.4786L10.1736 12.785C10.104 12.6266 9.95518 12.5258 9.78238 12.5162L9.05038 12.4826C8.98558 12.4802 8.93758 12.4274 8.93758 12.3626V11.8346C8.93758 11.7914 8.95918 11.7626 8.97358 11.7506C8.98798 11.7386 9.01678 11.717 9.05998 11.717L9.78958 11.7266H9.79438C9.97918 11.7266 10.1424 11.6162 10.212 11.4458L10.5504 10.6178C10.62 10.445 10.5792 10.253 10.4448 10.1234L9.99358 9.68899C9.96238 9.65779 9.95758 9.62179 9.95758 9.60499C9.95758 9.58579 9.96238 9.54979 9.99118 9.51859L10.2912 9.21619C10.3368 9.17059 10.4088 9.16819 10.4568 9.21139L10.9584 9.67459C11.088 9.79459 11.2752 9.82819 11.4384 9.76099L12.1752 9.45619C12.3432 9.38659 12.4536 9.22339 12.4536 9.04099V8.32579C12.4536 8.26099 12.5064 8.20579 12.5736 8.20579H13.08C13.1448 8.20579 13.2 8.25859 13.2 8.32579V9.04099C13.2 9.22339 13.3104 9.38899 13.4784 9.45859L14.2608 9.78019C14.4312 9.84979 14.6232 9.81139 14.7528 9.67939L15.1896 9.24019C15.2208 9.20899 15.2568 9.20419 15.276 9.20419C15.2952 9.20419 15.3312 9.20899 15.3624 9.24259L15.6504 9.54739C15.6936 9.59299 15.6936 9.66499 15.6504 9.71299L15.1968 10.1834C15.072 10.3154 15.036 10.5074 15.108 10.673L15.4464 11.4578C15.5184 11.6234 15.6792 11.7314 15.8592 11.7314L15.852 11.7194Z" fill="#484C52"/>
</svg>
