<svg width="22" height="19" viewBox="0 0 22 19" fill="none" xmlns="http://www.w3.org/2000/svg">
<path d="M13.706 0.751107H8.29401C7.63978 0.750816 6.9919 0.893054 6.3874 1.1697C5.78291 1.44634 5.23363 1.85196 4.77097 2.36338C4.30831 2.8748 3.94133 3.48201 3.691 4.1503C3.44066 4.81858 3.31188 5.53486 3.31201 6.25819V12.2418C3.31175 12.9652 3.44043 13.6816 3.69071 14.35C3.94098 15.0185 4.30795 15.6258 4.77062 16.1373C5.23329 16.6489 5.78261 17.0546 6.38717 17.3313C6.99174 17.608 7.63969 17.7503 8.29401 17.75H13.706C14.3603 17.7503 15.0083 17.608 15.6129 17.3313C16.2174 17.0546 16.7667 16.6489 17.2294 16.1373C17.6921 15.6258 18.059 15.0185 18.3093 14.35C18.5596 13.6816 18.6883 12.9652 18.688 12.2418V6.25819C18.6883 5.53477 18.5596 4.81837 18.3093 4.14996C18.059 3.48154 17.6921 2.87421 17.2294 2.36267C16.7667 1.85112 16.2174 1.4454 15.6129 1.16869C15.0083 0.891985 14.3603 0.74971 13.706 0.75V0.751107Z" stroke="#484C52" stroke-width="1.5"/>
<path d="M18.606 13.217H20.225C20.4968 13.217 20.7576 13.0976 20.9498 12.8851C21.142 12.6725 21.25 12.3843 21.25 12.0837V6.41744C21.25 6.11688 21.142 5.82863 20.9498 5.6161C20.7576 5.40358 20.4968 5.28418 20.225 5.28418H18.605M3.395 13.217H1.775C1.6404 13.217 1.50711 13.1877 1.38275 13.1307C1.25839 13.0738 1.1454 12.9903 1.05022 12.8851C0.955035 12.7798 0.879535 12.6549 0.828023 12.5174C0.776512 12.3799 0.75 12.2326 0.75 12.0837V6.41744C0.75 6.11688 0.857991 5.82863 1.05022 5.6161C1.24244 5.40358 1.50315 5.28418 1.775 5.28418H3.395" stroke="#484C52" stroke-width="1.5"/>
<path d="M1.76514 5.28402V0.750977M20.2251 5.28402L20.2151 0.750977M7.91514 5.67098V8.65394M14.0651 5.67098V8.65394M8.94014 13.2168H13.0401" stroke="#484C52" stroke-width="1.5" stroke-linecap="round" stroke-linejoin="round"/>
</svg>
