<svg width="15" height="14" viewBox="0 0 15 14" fill="none" xmlns="http://www.w3.org/2000/svg">
<path d="M8.93333 13.85C8.54444 13.85 8.17222 13.7693 7.81667 13.608C7.46111 13.4467 7.15556 13.2162 6.9 12.9167L3.03333 8.41667L3.9 7.76667C4.12222 7.6 4.37222 7.51111 4.65 7.5C4.92778 7.48889 5.18333 7.56111 5.41667 7.71667L6.33333 8.3V1.85C6.33333 1.66111 6.39733 1.50289 6.52533 1.37533C6.65333 1.24778 6.81156 1.18378 7 1.18333C7.18844 1.18289 7.34689 1.24689 7.47533 1.37533C7.60378 1.50378 7.66756 1.662 7.66667 1.85V7.85H8.66667V4.51667C8.66667 4.32778 8.73067 4.16956 8.85867 4.042C8.98667 3.91444 9.14489 3.85044 9.33333 3.85C9.52178 3.84956 9.68022 3.91356 9.80867 4.042C9.93711 4.17044 10.0009 4.32867 10 4.51667V7.85H11V5.18333C11 4.99444 11.064 4.83622 11.192 4.70867C11.32 4.58111 11.4782 4.51711 11.6667 4.51667C11.8551 4.51622 12.0136 4.58022 12.142 4.70867C12.2704 4.83711 12.3342 4.99533 12.3333 5.18333V7.85H13.3333V6.51667C13.3333 6.32778 13.3973 6.16956 13.5253 6.042C13.6533 5.91444 13.8116 5.85044 14 5.85C14.1884 5.84956 14.3469 5.91356 14.4753 6.042C14.6038 6.17044 14.6676 6.32867 14.6667 6.51667V11.1833C14.6667 11.9167 14.4056 12.5444 13.8833 13.0667C13.3611 13.5889 12.7333 13.85 12 13.85H8.93333ZM2.33333 5.85C1.67778 5.85 1.12489 5.62511 0.674667 5.17533C0.224445 4.72556 -0.000443787 4.18378 6.57462e-07 3.55C6.57462e-07 3.17222 0.0751118 2.84444 0.225334 2.56667C0.375556 2.28889 0.728223 1.83333 1.28333 1.2L2.33333 0L3.38333 1.21667C3.95 1.87222 4.30556 2.33333 4.45 2.6C4.59444 2.86667 4.66667 3.18333 4.66667 3.55C4.66667 4.18333 4.43889 4.72511 3.98333 5.17533C3.52778 5.62556 2.97778 5.85044 2.33333 5.85Z" fill="#FE6666"/>
</svg>
