<svg width="11" height="16" viewBox="0 0 11 16" fill="none" xmlns="http://www.w3.org/2000/svg">
<path d="M5.54333 0.653328C5.51509 0.60654 5.47524 0.567841 5.42764 0.540978C5.38005 0.514115 5.32632 0.5 5.27167 0.5C5.21701 0.5 5.16329 0.514115 5.11569 0.540978C5.0681 0.567841 5.02825 0.60654 5 0.653328C3.98933 2.30999 0.5 8.15733 0.5 10.3953C0.5 11.6609 1.00273 12.8745 1.89759 13.7694C2.79245 14.6643 4.00614 15.167 5.27167 15.167C6.53719 15.167 7.75088 14.6643 8.64575 13.7694C9.54061 12.8745 10.0433 11.6609 10.0433 10.3953C10.0433 8.15733 6.55467 2.30866 5.54333 0.653328Z" fill="#FFBFC5"/>
<path d="M5.27182 13.2388C4.19339 13.2411 3.14613 12.8773 2.30132 12.207C1.45651 11.5367 0.864158 10.5995 0.621155 9.54883C0.550791 9.82593 0.510338 10.1098 0.500488 10.3955C0.500488 11.6609 1.00318 12.8745 1.89798 13.7693C2.79278 14.6641 4.00639 15.1668 5.27182 15.1668C6.53726 15.1668 7.75086 14.6641 8.64566 13.7693C9.54046 12.8745 10.0432 11.6609 10.0432 10.3955C10.0333 10.1098 9.99285 9.82593 9.92249 9.54883C9.67949 10.5995 9.08714 11.5367 8.24232 12.207C7.39751 12.8773 6.35025 13.2411 5.27182 13.2388Z" fill="#FF808C"/>
<path d="M5.54333 0.653328C5.51509 0.60654 5.47524 0.567841 5.42764 0.540978C5.38005 0.514115 5.32632 0.5 5.27167 0.5C5.21701 0.5 5.16329 0.514115 5.11569 0.540978C5.0681 0.567841 5.02825 0.60654 5 0.653328C3.98933 2.31 0.5 8.15733 0.5 10.3953C0.5 11.6609 1.00273 12.8745 1.89759 13.7694C2.79245 14.6643 4.00614 15.167 5.27167 15.167C6.53719 15.167 7.75088 14.6643 8.64575 13.7694C9.54061 12.8745 10.0433 11.6609 10.0433 10.3953C10.0433 8.15733 6.55467 2.30866 5.54333 0.653328Z" stroke="#191919" stroke-linecap="round" stroke-linejoin="round"/>
<path d="M5.27195 13.2385C4.51586 13.2399 3.78983 12.9425 3.25195 12.4111" stroke="#191919" stroke-linecap="round" stroke-linejoin="round"/>
</svg>
