<svg width="15" height="15" viewBox="0 0 15 15" fill="none" xmlns="http://www.w3.org/2000/svg">
<path d="M7.03626 0.25C5.94973 0.250755 4.94809 0.675556 4.41502 1.3618H1.75906C1.35883 1.3618 0.974999 1.52079 0.691994 1.8038C0.40899 2.0868 0.25 2.47064 0.25 2.87087V12.6998C0.25 13.1 0.40899 13.4838 0.691994 13.7668C0.974999 14.0498 1.35883 14.2088 1.75906 14.2088H12.3138C12.7141 14.2088 13.0979 14.0498 13.3809 13.7668C13.6639 13.4838 13.8229 13.1 13.8229 12.6998V2.87087C13.8229 2.47064 13.6639 2.0868 13.3809 1.8038C13.0979 1.52079 12.7141 1.3618 12.3138 1.3618H9.6609C9.12744 0.675178 8.12429 0.25 7.03626 0.25Z" fill="#00BFA6" stroke="#008E76" stroke-width="0.5" stroke-linecap="round" stroke-linejoin="round"/>
<path d="M7.03646 1.40576C5.56663 1.40576 4.37523 2.62131 4.37523 3.96589H6.17592C6.20006 3.54297 6.5777 3.2106 7.03646 3.20872C7.49672 3.20872 7.87625 3.54146 7.9004 3.96589H9.69769C9.69769 2.62131 8.50629 1.40576 7.03646 1.40576ZM5.16522 2.17123L5.48854 2.49455L5.16522 2.17123ZM8.9077 2.17123L8.58438 2.49455L8.9077 2.17123ZM7.03646 2.13275V3.20909V2.13275ZM8.53873 10.6126C9.70939 9.51056 9.85954 8.92882 9.85954 8.18183C9.85954 7.46352 9.19555 6.71804 8.37651 6.71804C7.73138 6.71804 7.18208 7.07909 7.03646 7.58349C6.89083 7.07909 6.34191 6.71767 5.69641 6.71767C4.87737 6.71767 4.21338 7.46352 4.21338 8.18146C4.21338 8.92844 4.36353 9.51056 5.53419 10.6126C6.12121 11.1653 6.53168 11.4705 7.03646 11.7308C7.54124 11.4705 7.95171 11.1649 8.53873 10.6126ZM7.03646 8.30596V10.5496V8.30596ZM8.15845 9.42794H5.91447H8.15845Z" fill="#00BFA6"/>
<path d="M5.16522 2.17123L5.48854 2.49455M8.9077 2.17123L8.58438 2.49455M7.03646 2.13275V3.20909M7.03646 8.30596V10.5496M8.15845 9.42794H5.91447M7.03646 1.40576C5.56663 1.40576 4.37523 2.62131 4.37523 3.96589H6.17592C6.20006 3.54297 6.5777 3.2106 7.03646 3.20872C7.49672 3.20872 7.87625 3.54146 7.9004 3.96589H9.69769C9.69769 2.62131 8.50629 1.40576 7.03646 1.40576ZM8.53873 10.6126C9.70939 9.51056 9.85954 8.92882 9.85954 8.18183C9.85954 7.46352 9.19555 6.71804 8.37651 6.71804C7.73138 6.71804 7.18208 7.07909 7.03646 7.58349C6.89083 7.07909 6.34191 6.71767 5.69641 6.71767C4.87737 6.71767 4.21338 7.46352 4.21338 8.18146C4.21338 8.92844 4.36353 9.51056 5.53419 10.6126C6.12121 11.1653 6.53168 11.4705 7.03646 11.7308C7.54124 11.4705 7.95171 11.1649 8.53873 10.6126Z" stroke="#008E76" stroke-width="0.5" stroke-linecap="round" stroke-linejoin="round"/>
</svg>
