<svg width="22" height="21" viewBox="0 0 22 21" fill="none" xmlns="http://www.w3.org/2000/svg">
<path d="M20.2308 10.5556C19.8155 10.227 19.3139 9.94398 19.1208 9.44637C18.8581 8.76968 19.278 8.04342 19.5256 7.36086C20.2816 5.27676 19.3113 2.80869 17.5703 1.46645C14.2491 -1.0942 7.76595 -0.196627 6.86004 3.34257C6.47681 4.83976 7.1634 6.54789 6.4609 7.9202C5.57451 9.65175 3.22316 9.76856 1.70874 10.5385C-0.167465 11.4924 -0.54285 13.5695 0.802728 15.1509C1.29686 15.7316 1.92912 16.1317 2.38225 16.7661C3.03797 17.6842 3.40571 18.6993 4.28302 19.4566C5.5184 20.5229 7.58388 20.7873 8.67758 19.5715C9.29345 18.8869 9.49383 17.8782 10.1661 17.2507C11.051 16.4248 12.4497 16.5359 13.5757 16.9612C14.7018 17.3866 15.7461 18.0733 16.9322 18.2668C18.7867 18.5694 20.7751 17.4632 21.5241 15.7121C22.2732 13.9611 21.7132 11.7282 20.2308 10.5556Z" fill="url(#paint0_linear_127_529)"/>
<path d="M14.4735 8.09082V13.2895H4.17871V9.29167C4.17871 8.62846 4.70756 8.09082 5.35991 8.09082H14.4735Z" fill="#F9BB40"/>
<path d="M16.5912 1.61595V13.0738H5.30957V3.89325H7.54962C7.85928 3.89325 8.11034 3.63802 8.11034 3.3232V1.0459H16.0304C16.3401 1.0459 16.5912 1.30113 16.5912 1.61595Z" fill="#EDEDED"/>
<path d="M5.30957 3.89325H7.54962C7.85928 3.89325 8.11034 3.63802 8.11034 3.3232V1.0459L5.30957 3.89325Z" fill="#386E93"/>
<path d="M17.7231 8.5092V18.0886C17.7231 18.7527 17.1955 19.2892 16.5422 19.2892H5.36065C4.70733 19.2892 4.17969 18.7527 4.17969 18.0886V11.1116C4.17969 10.4474 4.70733 9.91098 5.36065 9.91098H8.31935C9.61651 9.91098 10.8038 9.16057 11.3786 7.97913C11.5765 7.56725 11.9879 7.30859 12.437 7.30859H16.5422C17.1955 7.30859 17.7231 7.84824 17.7231 8.5092Z" fill="#F9BB40"/>
<path d="M13.1706 15.9306C13.0734 16.101 12.8991 16.1964 12.7181 16.1964C12.6309 16.1964 12.5405 16.1725 12.46 16.1248L11.4712 15.5455V16.7041C11.4712 16.9972 11.2399 17.2323 10.9517 17.2323C10.6634 17.2323 10.4321 16.9972 10.4321 16.7041V15.5455L9.44334 16.1248C9.36291 16.1725 9.27238 16.1964 9.18522 16.1964C9.00421 16.1964 8.82993 16.101 8.73272 15.9306C8.59195 15.6784 8.67575 15.3547 8.92378 15.2081L9.90926 14.6288L8.92378 14.0496C8.67575 13.903 8.59195 13.5793 8.73272 13.3271C8.87685 13.075 9.19527 12.9898 9.44334 13.1329L10.4321 13.7122V12.5536C10.4321 12.2639 10.6634 12.0254 10.9517 12.0254C11.2399 12.0254 11.4712 12.2639 11.4712 12.5536V13.7122L12.46 13.1329C12.708 12.9898 13.0265 13.075 13.1706 13.3271C13.3114 13.5793 13.2276 13.903 12.9795 14.0496L11.9941 14.6288L12.9795 15.2081C13.2276 15.3547 13.3114 15.6784 13.1706 15.9306Z" fill="#FF5859"/>
<path d="M5.361 19.4742H16.5425C17.2942 19.4742 17.9057 18.8525 17.9057 18.0884V8.50899C17.9057 7.82506 17.4153 7.25668 16.7735 7.14465V1.61554C16.7735 1.19921 16.4402 0.860352 16.0306 0.860352H8.11048C8.05913 0.860352 8.01019 0.885572 7.98153 0.914751L5.181 3.76181C5.15197 3.79128 5.12754 3.84109 5.12754 3.89285V7.9278C4.48629 8.04032 3.99658 8.60816 3.99658 9.29165V12.1044H3.99788V18.0884C3.99788 18.8525 4.60937 19.4742 5.361 19.4742ZM17.5413 8.50899V18.0884C17.5413 18.6482 17.0933 19.1038 16.5425 19.1038H5.361C4.81028 19.1038 4.36225 18.6482 4.36225 18.0884V11.1114C4.36225 10.5515 4.81028 10.096 5.361 10.096H8.31976C9.67591 10.096 10.9408 9.29718 11.5426 8.06021C11.7106 7.71079 12.0534 7.49363 12.4374 7.49363H16.5425C17.0933 7.49363 17.5413 7.94916 17.5413 8.50899ZM16.4091 1.61554V7.12324H12.4374C11.9211 7.12324 11.4413 7.42721 11.2157 7.89686C10.6752 9.00787 9.53851 9.72563 8.3198 9.72563H5.49192V4.07804H7.54976C7.95942 4.07804 8.29269 3.73923 8.29269 3.32275V1.23079H16.0306C16.2393 1.23079 16.4091 1.40332 16.4091 1.61554ZM7.92831 1.49267V3.32275C7.92831 3.53497 7.75846 3.70765 7.54971 3.70765H5.74956L7.92831 1.49267ZM5.12754 8.30537V9.74747C4.82663 9.8006 4.5599 9.95403 4.36096 10.1729V9.29165C4.36096 8.8132 4.6886 8.41227 5.12754 8.30537Z" fill="#332E8E"/>
<path d="M13.0707 15.048L12.358 14.629L13.071 14.2098C13.4034 14.0136 13.5192 13.5766 13.328 13.2341C13.1348 12.8963 12.7051 12.7786 12.369 12.9726L11.6533 13.3918V12.5537C11.6533 12.1604 11.3385 11.8404 10.9516 11.8404C10.5646 11.8404 10.2498 12.1604 10.2498 12.5537V13.3918L9.5331 12.972C9.1981 12.7788 8.76829 12.8961 8.57411 13.2358C8.38391 13.5766 8.49968 14.0136 8.83238 14.2101L9.54512 14.629L8.83209 15.0482C8.49964 15.2447 8.38396 15.6815 8.57502 16.0237C8.70103 16.2446 8.93483 16.3818 9.18507 16.3818C9.30723 16.3818 9.42824 16.3483 9.53411 16.2855L10.2498 15.8662V16.7044C10.2498 17.0977 10.5646 17.4177 10.9516 17.4177C11.3385 17.4177 11.6533 17.0977 11.6533 16.7044V15.8662L12.368 16.285C12.4749 16.3483 12.5959 16.3818 12.718 16.3818C12.9683 16.3818 13.2021 16.2446 13.3281 16.0237C13.3284 16.0232 13.3287 16.0226 13.329 16.0221C13.5192 15.6815 13.4035 15.2445 13.0707 15.048ZM13.0125 15.8386C12.9505 15.9467 12.8404 16.0113 12.718 16.0113C12.6612 16.0113 12.6022 15.9948 12.5509 15.9644L11.5621 15.3852C11.5058 15.3521 11.4364 15.3524 11.38 15.3853C11.3237 15.4184 11.289 15.4795 11.289 15.5456V16.7043C11.289 16.8966 11.1408 17.0472 10.9517 17.0472C10.7625 17.0472 10.6143 16.8966 10.6143 16.7043V15.5456C10.6143 15.4795 10.5796 15.4184 10.5233 15.3853C10.4951 15.3688 10.4636 15.3604 10.4321 15.3604C10.4008 15.3604 10.3693 15.3687 10.3412 15.3852L9.35141 15.965C9.30108 15.995 9.24204 16.0113 9.18521 16.0113C9.06257 16.0113 8.95233 15.9465 8.89117 15.8393C8.79915 15.6745 8.85483 15.4632 9.01492 15.3687L10.0004 14.7893C10.0567 14.7561 10.0914 14.695 10.0914 14.6289C10.0914 14.5628 10.0567 14.5017 10.0004 14.4685L9.01521 13.8896C8.85478 13.7948 8.79911 13.5835 8.89021 13.4203C8.98348 13.257 9.19127 13.2005 9.35228 13.2936L10.3411 13.8728C10.3976 13.9059 10.467 13.9058 10.5232 13.8727C10.5796 13.8396 10.6143 13.7785 10.6143 13.7123V12.5537C10.6143 12.3647 10.7656 12.2108 10.9516 12.2108C11.1376 12.2108 11.289 12.3647 11.289 12.5537V13.7123C11.289 13.7785 11.3237 13.8396 11.38 13.8727C11.4361 13.9056 11.5056 13.9058 11.5621 13.8728L12.5498 13.2941C12.7121 13.2008 12.9199 13.2571 13.0121 13.4186C13.1041 13.5835 13.0484 13.7948 12.8882 13.8893L11.9028 14.4685C11.8465 14.5017 11.8118 14.5628 11.8118 14.6289C11.8118 14.695 11.8465 14.7561 11.9028 14.7893L12.888 15.3684C13.0482 15.4631 13.104 15.6739 13.0125 15.8386ZM7.77002 4.50648C7.77002 4.60873 7.85156 4.69168 7.95218 4.69168H14.8401C14.9407 4.69168 15.0222 4.60873 15.0222 4.50648C15.0222 4.40423 14.9407 4.32129 14.8401 4.32129H7.95223C7.85161 4.32124 7.77002 4.40423 7.77002 4.50648ZM14.8401 5.72234H7.95223C7.85161 5.72234 7.77007 5.80528 7.77007 5.90753C7.77007 6.00978 7.85161 6.09272 7.95223 6.09272H14.8401C14.9407 6.09272 15.0222 6.00978 15.0222 5.90753C15.0222 5.80528 14.9407 5.72234 14.8401 5.72234ZM10.8005 7.12343H7.95223C7.85161 7.12343 7.77007 7.20637 7.77007 7.30862C7.77007 7.41087 7.85161 7.49382 7.95223 7.49382H10.8005C10.9012 7.49382 10.9827 7.41087 10.9827 7.30862C10.9827 7.20637 10.9012 7.12343 10.8005 7.12343ZM9.86838 8.52443H7.95223C7.85161 8.52443 7.77007 8.60737 7.77007 8.70962C7.77007 8.81187 7.85161 8.89481 7.95223 8.89481H9.86838C9.96901 8.89481 10.0505 8.81187 10.0505 8.70962C10.0505 8.60737 9.96901 8.52443 9.86838 8.52443Z" fill="#332E8E"/>
<defs>
<linearGradient id="paint0_linear_127_529" x1="12.1938" y1="-10.3357" x2="9.55623" y2="37.9196" gradientUnits="userSpaceOnUse">
<stop stop-color="#EAE9FE"/>
<stop offset="0.424" stop-color="#EEEEFE"/>
<stop offset="0.897" stop-color="#FBFBFF"/>
<stop offset="1" stop-color="white"/>
</linearGradient>
</defs>
</svg>
