<svg width="18" height="19" viewBox="0 0 18 19" fill="none" xmlns="http://www.w3.org/2000/svg">
<path d="M1.97647 18.4615H1.48238C1.35133 18.4615 1.22566 18.4075 1.133 18.3113C1.04034 18.2152 0.988281 18.0847 0.988281 17.9487V17.8564C0.988518 17.7733 1.00823 17.6914 1.04572 17.6179C1.08321 17.5445 1.13735 17.4815 1.20347 17.4346C1.2696 17.3877 1.34573 17.3581 1.42531 17.3485C1.50488 17.3389 1.58551 17.3496 1.66025 17.3795C1.76168 17.4173 1.8687 17.4364 1.97647 17.4359C2.10751 17.4359 2.23319 17.4899 2.32585 17.5861C2.41851 17.6823 2.47056 17.8127 2.47056 17.9487C2.47056 18.0847 2.41851 18.2152 2.32585 18.3113C2.23319 18.4075 2.10751 18.4615 1.97647 18.4615ZM15.8111 0H1.48238C1.35133 0 1.22566 0.0540293 1.133 0.150202C1.04034 0.246374 0.988281 0.376812 0.988281 0.512821V5.64103C0.988281 5.77703 1.04034 5.90747 1.133 6.00365C1.22566 6.09982 1.35133 6.15385 1.48238 6.15385H4.73845L6.07251 7.54359C6.11868 7.59112 6.17343 7.62872 6.23363 7.65424C6.29383 7.67976 6.35829 7.6927 6.42331 7.69231H13.8347V16.4103C13.8347 16.9543 14.0429 17.476 14.4136 17.8607C14.7842 18.2454 15.2869 18.4615 15.8111 18.4615C15.9421 18.4615 16.0678 18.4075 16.1605 18.3113C16.2531 18.2152 16.3052 18.0847 16.3052 17.9487V0.512821C16.3052 0.376812 16.2531 0.246374 16.1605 0.150202C16.0678 0.0540293 15.9421 0 15.8111 0ZM15.317 17.2974C15.1669 17.2075 15.0423 17.0782 14.9556 16.9225C14.8688 16.7668 14.8231 16.5901 14.8229 16.4103V7.17949C14.8229 7.04348 14.7709 6.91304 14.6782 6.81687C14.5855 6.7207 14.4599 6.66667 14.3288 6.66667H6.62589L5.29184 5.27692C5.24567 5.22939 5.19092 5.19179 5.13072 5.16627C5.07052 5.14075 5.00606 5.12782 4.94103 5.12821H1.97647V1.02564H15.317V17.2974Z" fill="#62355C"/>
<path d="M15.3171 1.02588V17.2977C15.167 17.2077 15.0424 17.0784 14.9557 16.9227C14.8689 16.767 14.8232 16.5904 14.823 16.4105V7.17973C14.823 7.04372 14.7709 6.91328 14.6783 6.81711C14.5856 6.72093 14.46 6.6669 14.3289 6.6669H6.62599L5.29193 5.27716C5.24576 5.22963 5.19101 5.19203 5.13081 5.16651C5.07061 5.14099 5.00615 5.12805 4.94113 5.12844H1.97656V1.02588H15.3171Z" fill="#F2F2F2"/>
<path d="M17.2933 5.12842H15.811C15.6799 5.12842 15.5543 5.18245 15.4616 5.27862C15.369 5.37479 15.3169 5.50523 15.3169 5.64124V17.9489C15.3169 18.0849 15.369 18.2154 15.4616 18.3116C15.5543 18.4077 15.6799 18.4618 15.811 18.4618C16.3352 18.4618 16.8379 18.2456 17.2085 17.8609C17.5791 17.4763 17.7874 16.9545 17.7874 16.4105V5.64124C17.7874 5.50523 17.7353 5.37479 17.6426 5.27862C17.55 5.18245 17.4243 5.12842 17.2933 5.12842ZM16.7992 16.4105C16.799 16.5903 16.7533 16.767 16.6665 16.9227C16.5798 17.0784 16.4552 17.2077 16.3051 17.2976V6.15406H16.7992V16.4105Z" fill="#62355C"/>
<path d="M16.7993 6.15381V16.4102C16.7991 16.5901 16.7533 16.7667 16.6666 16.9224C16.5799 17.0782 16.4553 17.2075 16.3052 17.2974V6.15381H16.7993Z" fill="#E2B28A"/>
<path d="M14.1015 17.4359H1.97647C1.8614 17.4362 1.74734 17.4135 1.64049 17.3692C1.45029 17.2978 1.28577 17.1676 1.16914 16.9961C1.05251 16.8246 0.98938 16.6201 0.988281 16.4102V6.15381H4.73845L6.07251 7.54355C6.11868 7.59108 6.17343 7.62868 6.23363 7.6542C6.29383 7.67972 6.35829 7.69266 6.42331 7.69227H13.8347V16.4102C13.8353 16.7705 13.9274 17.1242 14.1015 17.4359Z" fill="#FAD9BA"/>
<path d="M9.88181 10.2562H8.89362V9.23059C8.89362 9.09459 8.84157 8.96415 8.74891 8.86797C8.65625 8.7718 8.53057 8.71777 8.39953 8.71777H6.42315C6.29211 8.71777 6.16644 8.7718 6.07378 8.86797C5.98111 8.96415 5.92906 9.09459 5.92906 9.23059V10.2562H4.94087C4.80983 10.2562 4.68415 10.3103 4.59149 10.4064C4.49883 10.5026 4.44678 10.633 4.44678 10.7691V12.8203C4.44678 12.9563 4.49883 13.0868 4.59149 13.183C4.68415 13.2791 4.80983 13.3332 4.94087 13.3332H5.92906V14.3588C5.92906 14.4948 5.98111 14.6252 6.07378 14.7214C6.16644 14.8176 6.29211 14.8716 6.42315 14.8716H8.39953C8.53057 14.8716 8.65625 14.8176 8.74891 14.7214C8.84157 14.6252 8.89362 14.4948 8.89362 14.3588V13.3332H9.88181C10.0129 13.3332 10.1385 13.2791 10.2312 13.183C10.3238 13.0868 10.3759 12.9563 10.3759 12.8203V10.7691C10.3759 10.633 10.3238 10.5026 10.2312 10.4064C10.1385 10.3103 10.0129 10.2562 9.88181 10.2562ZM9.38772 12.3075H8.39953C8.26849 12.3075 8.14281 12.3615 8.05015 12.4577C7.95749 12.5539 7.90543 12.6843 7.90543 12.8203V13.846H6.91725V12.8203C6.91725 12.6843 6.86519 12.5539 6.77253 12.4577C6.67987 12.3615 6.55419 12.3075 6.42315 12.3075H5.43497V11.2819H6.42315C6.55419 11.2819 6.67987 11.2278 6.77253 11.1317C6.86519 11.0355 6.91725 10.9051 6.91725 10.7691V9.74341H7.90543V10.7691C7.90543 10.9051 7.95749 11.0355 8.05015 11.1317C8.14281 11.2278 8.26849 11.2819 8.39953 11.2819H9.38772V12.3075Z" fill="#62355C"/>
<path d="M9.38781 11.2821V12.3078H8.39962C8.26858 12.3078 8.14291 12.3618 8.05024 12.458C7.95758 12.5541 7.90553 12.6846 7.90553 12.8206V13.8462H6.91734V12.8206C6.91734 12.6846 6.86528 12.5541 6.77262 12.458C6.67996 12.3618 6.55429 12.3078 6.42325 12.3078H5.43506V11.2821H6.42325C6.55429 11.2821 6.67996 11.2281 6.77262 11.1319C6.86528 11.0357 6.91734 10.9053 6.91734 10.7693V9.74365H7.90553V10.7693C7.90553 10.9053 7.95758 11.0357 8.05024 11.1319C8.14291 11.2281 8.26858 11.2821 8.39962 11.2821H9.38781Z" fill="#EC7BB0"/>
<path d="M12.3524 2.05127C11.9615 2.05127 11.5794 2.17158 11.2543 2.39697C10.9293 2.62237 10.676 2.94274 10.5264 3.31756C10.3768 3.69238 10.3377 4.10483 10.414 4.50274C10.4902 4.90065 10.6784 5.26615 10.9548 5.55303C11.2312 5.8399 11.5834 6.03527 11.9668 6.11442C12.3502 6.19357 12.7475 6.15295 13.1087 5.99769C13.4698 5.84243 13.7785 5.57951 13.9956 5.24218C14.2128 4.90485 14.3287 4.50826 14.3287 4.10255C14.3287 3.55852 14.1205 3.03677 13.7499 2.65208C13.3792 2.26739 12.8765 2.05127 12.3524 2.05127ZM12.3524 5.12819C12.1569 5.12819 11.9659 5.06804 11.8033 4.95534C11.6408 4.84264 11.5142 4.68246 11.4394 4.49505C11.3646 4.30764 11.345 4.10141 11.3832 3.90246C11.4213 3.7035 11.5154 3.52075 11.6536 3.37731C11.7918 3.23388 11.9679 3.13619 12.1596 3.09662C12.3513 3.05704 12.5499 3.07735 12.7305 3.15498C12.9111 3.23261 13.0654 3.36407 13.174 3.53274C13.2826 3.7014 13.3405 3.8997 13.3405 4.10255C13.3405 4.37457 13.2364 4.63544 13.0511 4.82779C12.8658 5.02013 12.6144 5.12819 12.3524 5.12819Z" fill="#62355C"/>
<path d="M12.3524 5.12843C12.8982 5.12843 13.3406 4.66924 13.3406 4.10279C13.3406 3.53634 12.8982 3.07715 12.3524 3.07715C11.8067 3.07715 11.3643 3.53634 11.3643 4.10279C11.3643 4.66924 11.8067 5.12843 12.3524 5.12843Z" fill="#EC7BB0"/>
<path d="M7.90529 3.07691H3.45845C3.32741 3.07691 3.20173 3.02288 3.10907 2.92671C3.01641 2.83054 2.96436 2.7001 2.96436 2.56409C2.96436 2.42808 3.01641 2.29764 3.10907 2.20147C3.20173 2.1053 3.32741 2.05127 3.45845 2.05127H7.90529C8.03634 2.05127 8.16201 2.1053 8.25467 2.20147C8.34733 2.29764 8.39939 2.42808 8.39939 2.56409C8.39939 2.7001 8.34733 2.83054 8.25467 2.92671C8.16201 3.02288 8.03634 3.07691 7.90529 3.07691ZM7.90529 4.61537H3.45845C3.32741 4.61537 3.20173 4.56134 3.10907 4.46517C3.01641 4.369 2.96436 4.23856 2.96436 4.10255C2.96436 3.96654 3.01641 3.83611 3.10907 3.73993C3.20173 3.64376 3.32741 3.58973 3.45845 3.58973H7.90529C8.03634 3.58973 8.16201 3.64376 8.25467 3.73993C8.34733 3.83611 8.39939 3.96654 8.39939 4.10255C8.39939 4.23856 8.34733 4.369 8.25467 4.46517C8.16201 4.56134 8.03634 4.61537 7.90529 4.61537Z" fill="#938993"/>
<path d="M12.3523 16.4104H0.494094C0.363052 16.4104 0.237377 16.3564 0.144717 16.2602C0.0520563 16.164 0 16.0336 0 15.8976C0 15.7616 0.0520563 15.6311 0.144717 15.535C0.237377 15.4388 0.363052 15.3848 0.494094 15.3848H12.3523C12.4834 15.3848 12.6091 15.4388 12.7017 15.535C12.7944 15.6311 12.8464 15.7616 12.8464 15.8976C12.8464 16.0336 12.7944 16.164 12.7017 16.2602C12.6091 16.3564 12.4834 16.4104 12.3523 16.4104Z" fill="#E2B28A"/>
<path d="M15.811 17.4361C15.5489 17.4361 15.2976 17.3281 15.1123 17.1357C14.9269 16.9434 14.8228 16.6825 14.8228 16.4105V7.17971C14.8228 7.0437 14.7708 6.91326 14.6781 6.81709C14.5854 6.72092 14.4598 6.66689 14.3287 6.66689H6.6258L5.29175 5.27714C5.24558 5.22962 5.19082 5.19201 5.13063 5.16649C5.07043 5.14097 5.00597 5.12804 4.94094 5.12843H0.494094C0.363052 5.12843 0.237377 5.18246 0.144717 5.27863C0.0520563 5.3748 0 5.50524 0 5.64125V16.4105C0.0011864 16.8312 0.126969 17.2413 0.3603 17.5853C0.59363 17.9293 0.923225 18.1905 1.30441 18.3336C1.51835 18.4208 1.74652 18.4644 1.97638 18.4618H15.811C15.942 18.4618 16.0677 18.4077 16.1604 18.3116C16.253 18.2154 16.3051 18.0849 16.3051 17.9489C16.3051 17.8129 16.253 17.6825 16.1604 17.5863C16.0677 17.4901 15.942 17.4361 15.811 17.4361ZM1.97638 17.4361C1.8613 17.4364 1.74724 17.4138 1.64039 17.3695C1.45019 17.2981 1.28567 17.1679 1.16904 16.9964C1.05241 16.8249 0.989286 16.6204 0.988188 16.4105V6.15407H4.73836L6.07241 7.54381C6.11858 7.59134 6.17334 7.62894 6.23353 7.65446C6.29373 7.67998 6.35819 7.69292 6.42322 7.69253H13.8346V16.4105C13.8352 16.7707 13.9273 17.1245 14.1014 17.4361H1.97638Z" fill="#62355C"/>
</svg>
