<svg xmlns="http://www.w3.org/2000/svg" width="24" height="24" fill="none" viewBox="0 0 24 24" id="health">
  <path fill="#000" fill-rule="evenodd" d="M8.5 4C8.5 2.61929 9.61929 1.5 11 1.5H13C14.3807 1.5 15.5 2.61929 15.5 4V7C15.5 7.82843 16.1716 8.5 17 8.5H20C21.3807 8.5 22.5 9.61929 22.5 11V13C22.5 14.3807 21.3807 15.5 20 15.5H17C16.1716 15.5 15.5 16.1716 15.5 17V20C15.5 21.3807 14.3807 22.5 13 22.5H11C9.61929 22.5 8.5 21.3807 8.5 20V17C8.5 16.1716 7.82843 15.5 7 15.5H4C2.61929 15.5 1.5 14.3807 1.5 13V11C1.5 9.61929 2.61929 8.5 4 8.5H7C7.82843 8.5 8.5 7.82843 8.5 7V4ZM11 2.5C10.1716 2.5 9.5 3.17157 9.5 4V7C9.5 8.38071 8.38071 9.5 7 9.5H4C3.17157 9.5 2.5 10.1716 2.5 11V13C2.5 13.8284 3.17157 14.5 4 14.5H7C8.38071 14.5 9.5 15.6193 9.5 17V20C9.5 20.8284 10.1716 21.5 11 21.5H13C13.8284 21.5 14.5 20.8284 14.5 20V17C14.5 15.6193 15.6193 14.5 17 14.5H20C20.8284 14.5 21.5 13.8284 21.5 13V11C21.5 10.1716 20.8284 9.5 20 9.5H17C15.6193 9.5 14.5 8.38071 14.5 7V4C14.5 3.17157 13.8284 2.5 13 2.5H11Z" clip-rule="evenodd"></path>
</svg>
