<svg width="20" height="20" viewBox="0 0 20 20" fill="none" xmlns="http://www.w3.org/2000/svg">
<path d="M18.5106 20L13.4034 19.9993C13.0086 19.9989 12.6301 19.846 12.3509 19.5743C12.0717 19.3027 11.9147 18.9344 11.9143 18.5502V13.5815C11.9142 13.5266 11.8918 13.474 11.8519 13.4352C11.812 13.3964 11.7579 13.3746 11.7015 13.3745H8.29725C8.24084 13.3746 8.18676 13.3964 8.14687 13.4352C8.10699 13.474 8.08455 13.5266 8.08448 13.5815V18.5502C8.08403 18.9344 7.927 19.3027 7.64784 19.5743C7.36867 19.846 6.99016 19.9989 6.59533 19.9993L1.48957 20C1.29397 20 1.10027 19.9626 0.919546 19.8898C0.73882 19.817 0.574606 19.7102 0.436282 19.5756C0.297958 19.4411 0.188233 19.2813 0.113375 19.1055C0.0385173 18.9296 -7.82663e-06 18.7412 1.19265e-09 18.5508V8.98011C0.000167941 8.77823 0.0436044 8.5786 0.127535 8.39397C0.211466 8.20934 0.334046 8.04378 0.487447 7.90784L8.99746 0.37899C9.27099 0.135233 9.62844 1.91623e-05 9.99935 2.03658e-09C10.3703 -1.91583e-05 10.7277 0.135158 11.0013 0.378886L19.5126 7.9079C19.6659 8.04384 19.7885 8.20941 19.8724 8.39404C19.9564 8.57866 19.9998 8.77828 20 8.98016V18.5508C20 18.7412 19.9615 18.9296 19.8866 19.1054C19.8118 19.2812 19.7021 19.441 19.5638 19.5756C19.4255 19.7101 19.2613 19.8169 19.0806 19.8897C18.8999 19.9625 18.7062 20 18.5106 20ZM8.29725 12.1324H11.7015C12.0964 12.1328 12.4749 12.2856 12.7542 12.5573C13.0334 12.829 13.1904 13.1973 13.1909 13.5815V18.5502C13.1909 18.6051 13.2134 18.6577 13.2533 18.6965C13.2931 18.7353 13.3472 18.7571 13.4036 18.7572L18.5106 18.7579C18.5671 18.7578 18.6212 18.736 18.6611 18.6972C18.701 18.6584 18.7234 18.6057 18.7234 18.5508V8.98015C18.7234 8.9513 18.7171 8.92277 18.7051 8.89638C18.6931 8.87 18.6756 8.84634 18.6537 8.82691L10.1425 1.29801C10.1034 1.26322 10.0524 1.24393 9.99937 1.24394C9.94638 1.24395 9.89531 1.26326 9.85622 1.29806L1.3462 8.82696C1.3243 8.84638 1.30679 8.87003 1.29481 8.8964C1.28282 8.92277 1.27662 8.95128 1.2766 8.98011V18.5508C1.27661 18.6057 1.29903 18.6584 1.33893 18.6972C1.37883 18.736 1.43294 18.7578 1.48936 18.7579L6.59512 18.7572C6.65153 18.7571 6.7056 18.7353 6.74549 18.6965C6.78537 18.6577 6.80781 18.6051 6.80789 18.5502V13.5815C6.80833 13.1973 6.96539 12.829 7.2446 12.5573C7.52382 12.2856 7.90238 12.1328 8.29725 12.1324Z" fill="#539DF3"/>
</svg>
