<svg width="18" height="20" viewBox="0 0 18 20" fill="none" xmlns="http://www.w3.org/2000/svg">
<path d="M2.883 19.25C1.705 19.25 0.75 18.2428 0.75 16.9992V7.95284C0.75 7.26938 1.045 6.62189 1.55 6.19537L7.417 1.24361C7.79186 0.924574 8.2633 0.75 8.75 0.75C9.2367 0.75 9.70814 0.924574 10.083 1.24361L15.949 6.19537C16.455 6.62189 16.75 7.26938 16.75 7.95284V16.9992C16.75 18.2428 15.795 19.25 14.617 19.25H2.883Z" stroke="#484C52" stroke-width="1.5" stroke-linecap="round" stroke-linejoin="round"/>
<path d="M6.25 19.2502V13.5975C6.25 13.0524 6.46071 12.5295 6.83579 12.144C7.21086 11.7586 7.71957 11.542 8.25 11.542H9.25C9.78043 11.542 10.2891 11.7586 10.6642 12.144C11.0393 12.5295 11.25 13.0524 11.25 13.5975V19.2502" stroke="#484C52" stroke-width="1.5" stroke-linecap="round" stroke-linejoin="round"/>
</svg>
