<svg width="21" height="21" viewBox="0 0 21 21" fill="none" xmlns="http://www.w3.org/2000/svg">
<path d="M1.6543 11.1546C4.30525 8.00645 6.71373 6.19372 7.81256 5.44908C8.17175 5.20524 8.64539 5.28486 8.91818 5.62235C9.43627 6.26783 9.9356 6.92815 10.4156 7.60247C10.7811 8.11457 11.5524 8.13086 11.9573 7.64952C13.8283 5.42737 16.3571 3.23779 16.3571 3.23779" stroke="#484C52" stroke-width="1.5" stroke-linecap="round" stroke-linejoin="round"/>
<path d="M18.563 4.51474C18.8633 3.05125 18.8602 1.76103 18.8348 1.15347C18.8315 1.05024 18.789 0.952148 18.716 0.879071C18.643 0.805994 18.5449 0.763389 18.4417 0.759887C17.3145 0.718008 16.1863 0.809268 15.0805 1.03177C14.7399 1.10144 14.6272 1.5181 14.8724 1.76374L17.831 4.72238C18.0771 4.96803 18.4933 4.85494 18.563 4.51474ZM1.77555 19.7318C1.26526 19.7151 0.874405 19.4066 0.822833 18.899C0.781667 18.5009 0.75 17.9096 0.75 17.0356C0.75 16.1616 0.782571 15.5698 0.822381 15.1722C0.874405 14.6646 1.26526 14.3561 1.77555 14.3389C2.07729 14.3289 2.48126 14.3212 3.0119 14.3212C3.54255 14.3212 3.94652 14.3289 4.24826 14.3393C4.75855 14.3561 5.1494 14.6646 5.20098 15.1722C5.24169 15.5703 5.27381 16.1616 5.27381 17.0356C5.27381 17.9096 5.24124 18.5013 5.20143 18.899C5.1494 19.4066 4.75855 19.7151 4.24826 19.7323C3.94607 19.7422 3.54255 19.7499 3.0119 19.7499C2.48126 19.7499 2.07729 19.7422 1.77555 19.7318ZM16.3829 19.7201C15.7948 19.6839 15.3863 19.2595 15.3438 18.6719C15.2859 17.8752 15.2262 16.4325 15.2262 13.8688C15.2262 11.3051 15.2859 9.86246 15.3438 9.0658C15.3863 8.47814 15.7948 8.05334 16.3829 8.01761C16.6679 7.99996 17.0312 7.98775 17.4881 7.98775C17.945 7.98775 18.3083 7.99996 18.5933 8.01761C19.1814 8.0538 19.5899 8.47814 19.6324 9.0658C19.6903 9.86246 19.75 11.3051 19.75 13.8688C19.75 16.4325 19.6903 17.8752 19.6324 18.6719C19.5899 19.2595 19.1814 19.6843 18.5933 19.7201C18.3083 19.7377 17.9455 19.7499 17.4881 19.7499C17.0312 19.7499 16.6679 19.7377 16.3829 19.7201ZM9.11905 19.7282C8.54724 19.7033 8.12969 19.3211 8.08174 18.751C8.03243 18.1638 7.9881 17.2102 7.9881 15.6784C7.9881 14.1466 8.03243 13.193 8.08174 12.6058C8.12969 12.0357 8.54724 11.6535 9.1186 11.6286C9.49553 11.6131 9.87275 11.6058 10.25 11.6069C10.7214 11.6069 11.0923 11.6159 11.381 11.6286C11.9528 11.6535 12.3703 12.0357 12.4183 12.6058C12.4676 13.193 12.5119 14.1466 12.5119 15.6784C12.5119 17.2102 12.4676 18.1638 12.4183 18.751C12.3703 19.3211 11.9528 19.7033 11.3814 19.7282C11.0923 19.7409 10.7214 19.7499 10.25 19.7499C9.8729 19.7508 9.49583 19.7436 9.11905 19.7282Z" stroke="#484C52" stroke-width="1.5" stroke-linecap="round" stroke-linejoin="round"/>
</svg>
