<svg width="24" height="24" viewBox="0 0 24 24" fill="none" xmlns="http://www.w3.org/2000/svg">
<path d="M22.5 22.5V15C22.5 14.5875 22.1625 14.25 21.75 14.25H20.25C19.8375 14.25 19.5 14.5875 19.5 15V22.5H18V13.5C18 13.0875 17.6625 12.75 17.25 12.75H15.75C15.3375 12.75 15 13.0875 15 13.5V22.5H13.5V17.25C13.5 16.8375 13.1625 16.5 12.75 16.5H11.25C10.8375 16.5 10.5 16.8375 10.5 17.25V22.5H9V15.75C9 15.3375 8.6625 15 8.25 15H6.75C6.3375 15 6 15.3375 6 15.75V22.5H4.5V19.5C4.5 19.0875 4.1625 18.75 3.75 18.75H2.25C1.8375 18.75 1.5 19.0875 1.5 19.5V22.5C1.29375 22.5 1.125 22.6687 1.125 22.875C1.125 23.0813 1.29375 23.25 1.5 23.25H22.5C22.7062 23.25 22.875 23.0813 22.875 22.875C22.875 22.6687 22.7062 22.5 22.5 22.5ZM2.25 22.5V19.5H3.75V22.5H2.25ZM6.75 22.5V15.75H8.25V22.5H6.75ZM11.25 22.5V17.25H12.75V22.5H11.25ZM15.75 22.5V13.5H17.25V22.5H15.75ZM20.25 22.5V15H21.75V22.5H20.25Z" fill="#484C52"/>
<path d="M3 17.625C3.61875 17.625 4.125 17.1187 4.125 16.5C4.125 16.3425 4.09125 16.1963 4.035 16.0613L6.975 13.365C7.1325 13.4475 7.30875 13.5 7.5 13.5C7.83 13.5 8.1225 13.3537 8.32875 13.1287L10.8787 14.19C10.8787 14.2088 10.8713 14.2312 10.8713 14.25C10.8713 14.8688 11.3775 15.375 11.9963 15.375C12.615 15.375 13.1213 14.8688 13.1213 14.25C13.1213 14.0625 13.0688 13.8863 12.9862 13.7288L16.05 10.4062C16.185 10.4662 16.335 10.5 16.4925 10.5C16.77 10.5 17.0175 10.395 17.2162 10.23L19.89 11.79C19.8787 11.8575 19.8675 11.9288 19.8675 12C19.8675 12.6188 20.3738 13.125 20.9925 13.125C21.6112 13.125 22.1175 12.6188 22.1175 12C22.1175 11.3812 21.6112 10.875 20.9925 10.875C20.715 10.875 20.4675 10.98 20.2687 11.145L17.595 9.585C17.6062 9.5175 17.6175 9.44625 17.6175 9.375C17.6175 8.75625 17.1112 8.25 16.4925 8.25C15.8737 8.25 15.3675 8.75625 15.3675 9.375C15.3675 9.5625 15.42 9.73875 15.5025 9.89625L12.4387 13.2188C12.3037 13.1588 12.1537 13.125 11.9963 13.125C11.6663 13.125 11.3738 13.2713 11.1675 13.4963L8.6175 12.435C8.6175 12.4162 8.625 12.3938 8.625 12.375C8.625 11.7562 8.11875 11.25 7.5 11.25C6.88125 11.25 6.375 11.7562 6.375 12.375C6.375 12.5325 6.40875 12.6787 6.465 12.8137L3.525 15.51C3.3675 15.4275 3.19125 15.375 3 15.375C2.38125 15.375 1.875 15.8812 1.875 16.5C1.875 17.1187 2.38125 17.625 3 17.625ZM21 11.625C21.2062 11.625 21.375 11.7938 21.375 12C21.375 12.2062 21.2062 12.375 21 12.375C20.7938 12.375 20.625 12.2062 20.625 12C20.625 11.7938 20.7938 11.625 21 11.625ZM16.5 9C16.7063 9 16.875 9.16875 16.875 9.375C16.875 9.58125 16.7063 9.75 16.5 9.75C16.4025 9.75 16.3162 9.7125 16.2525 9.6525C16.2525 9.6525 16.2525 9.6525 16.2525 9.64875C16.2487 9.645 16.2413 9.645 16.2375 9.64125C16.17 9.57375 16.1287 9.48 16.1287 9.37875C16.1287 9.1725 16.2975 9.00375 16.5037 9.00375L16.5 9ZM12 13.875C12.0975 13.875 12.1838 13.9125 12.2475 13.9725C12.2475 13.9725 12.2475 13.9725 12.2475 13.9763C12.2513 13.98 12.2587 13.98 12.2625 13.9838C12.33 14.0513 12.3713 14.145 12.3713 14.2463C12.3713 14.4525 12.2025 14.6213 11.9963 14.6213C11.79 14.6213 11.6213 14.4525 11.6213 14.2463C11.6213 14.1975 11.6325 14.1487 11.6512 14.1075C11.6512 14.1075 11.6512 14.1075 11.6512 14.1038C11.6512 14.1038 11.6512 14.1037 11.6512 14.1C11.7113 13.9687 11.8425 13.875 11.9925 13.875H12ZM7.5 12C7.70625 12 7.875 12.1688 7.875 12.375C7.875 12.4237 7.86375 12.4725 7.845 12.5137C7.845 12.5137 7.845 12.5138 7.845 12.5175C7.845 12.5175 7.845 12.5175 7.845 12.5212C7.785 12.6525 7.65375 12.7463 7.50375 12.7463C7.2975 12.7463 7.12875 12.5775 7.12875 12.3713C7.12875 12.165 7.2975 11.9962 7.50375 11.9962L7.5 12ZM3 16.125C3.20625 16.125 3.375 16.2937 3.375 16.5C3.375 16.7063 3.20625 16.875 3 16.875C2.79375 16.875 2.625 16.7063 2.625 16.5C2.625 16.2937 2.79375 16.125 3 16.125Z" fill="#484C52"/>
<path d="M8.02125 7.30896C8.41125 7.65396 8.625 8.09646 8.625 8.55771V9.37521C8.625 9.86271 8.94 10.2752 9.375 10.4327V10.5002C9.375 11.119 9.88125 11.6252 10.5 11.6252C11.1187 11.6252 11.625 11.119 11.625 10.5002V10.4327C12.06 10.279 12.375 9.86646 12.375 9.37521V8.57646C12.375 8.09271 12.5662 7.65396 12.9037 7.37646C13.7587 6.66021 14.25 5.61396 14.25 4.50021C14.25 3.47646 13.845 2.52021 13.11 1.80771C12.375 1.09521 11.4113 0.720205 10.3837 0.750205C8.37375 0.810205 6.7425 2.49771 6.75 4.51146C6.75375 5.58021 7.21875 6.60021 8.02125 7.30521V7.30896ZM10.5 10.8752C10.2937 10.8752 10.125 10.7065 10.125 10.5002H10.875C10.875 10.7065 10.7062 10.8752 10.5 10.8752ZM11.625 9.37521C11.625 9.58146 11.4562 9.75021 11.25 9.75021H9.75C9.54375 9.75021 9.375 9.58146 9.375 9.37521V9.00021H11.625V9.37521ZM10.4062 1.50021C11.22 1.47396 12 1.77396 12.5887 2.34396C13.1775 2.91396 13.5 3.67896 13.5 4.49646C13.5 5.38521 13.1062 6.22521 12.42 6.79521C11.9925 7.15146 11.7187 7.66896 11.6437 8.24646H10.8712V5.55396C11.3062 5.40021 11.6212 4.98771 11.6212 4.49646C11.6212 4.29021 11.4525 4.12146 11.2462 4.12146C11.04 4.12146 10.8712 4.29021 10.8712 4.49646C10.8712 4.70271 10.7025 4.87146 10.4962 4.87146C10.29 4.87146 10.1212 4.70271 10.1212 4.49646C10.1212 4.29021 9.9525 4.12146 9.74625 4.12146C9.54 4.12146 9.37125 4.29021 9.37125 4.49646C9.37125 4.98396 9.68625 5.39646 10.1212 5.55396V8.24646H9.34875C9.27 7.68021 8.98125 7.15521 8.5125 6.74271C7.87125 6.17646 7.5 5.36271 7.49625 4.50771C7.48875 2.89521 8.79375 1.54521 10.4025 1.49646L10.4062 1.50021ZM15 4.50021C15 4.70646 15.1687 4.87521 15.375 4.87521H16.5C16.7062 4.87521 16.875 4.70646 16.875 4.50021C16.875 4.29396 16.7062 4.12521 16.5 4.12521H15.375C15.1687 4.12521 15 4.29396 15 4.50021ZM15 3.37521C15.0975 3.37521 15.1912 3.33771 15.2662 3.26646L16.0162 2.51646C16.1625 2.37021 16.1625 2.13396 16.0162 1.98771C15.87 1.84146 15.6337 1.84146 15.4875 1.98771L14.7375 2.73771C14.5912 2.88396 14.5912 3.12021 14.7375 3.26646C14.8125 3.34146 14.9062 3.37521 15.0037 3.37521H15ZM15.4837 7.01646C15.5588 7.09146 15.6525 7.12521 15.75 7.12521C15.8475 7.12521 15.9412 7.08771 16.0162 7.01646C16.1625 6.87021 16.1625 6.63396 16.0162 6.48771L15.2662 5.73771C15.12 5.59146 14.8837 5.59146 14.7375 5.73771C14.5912 5.88396 14.5912 6.12021 14.7375 6.26646L15.4875 7.01646H15.4837ZM4.5 4.87521H5.625C5.83125 4.87521 6 4.70646 6 4.50021C6 4.29396 5.83125 4.12521 5.625 4.12521H4.5C4.29375 4.12521 4.125 4.29396 4.125 4.50021C4.125 4.70646 4.29375 4.87521 4.5 4.87521ZM5.73375 3.26646C5.80875 3.34146 5.9025 3.37521 6 3.37521C6.0975 3.37521 6.19125 3.33771 6.26625 3.26646C6.4125 3.12021 6.4125 2.88396 6.26625 2.73771L5.51625 1.98771C5.37 1.84146 5.13375 1.84146 4.9875 1.98771C4.84125 2.13396 4.84125 2.37021 4.9875 2.51646L5.7375 3.26646H5.73375ZM5.73375 5.73396L4.98375 6.48396C4.8375 6.63021 4.8375 6.86646 4.98375 7.01271C5.05875 7.08771 5.1525 7.12146 5.25 7.12146C5.3475 7.12146 5.44125 7.08396 5.51625 7.01271L6.26625 6.26271C6.4125 6.11646 6.4125 5.88021 6.26625 5.73396C6.12 5.58771 5.88375 5.58771 5.7375 5.73396H5.73375Z" fill="#484C52"/>
</svg>
