<svg width="21" height="21" viewBox="0 0 21 21" fill="none" xmlns="http://www.w3.org/2000/svg">
<path fill-rule="evenodd" clip-rule="evenodd" d="M7 2.5C7 1.11929 8.11929 0 9.5 0H11.5C12.8807 0 14 1.11929 14 2.5V5.5C14 6.32843 14.6716 7 15.5 7H18.5C19.8807 7 21 8.11929 21 9.5V11.5C21 12.8807 19.8807 14 18.5 14H15.5C14.6716 14 14 14.6716 14 15.5V18.5C14 19.8807 12.8807 21 11.5 21H9.5C8.11929 21 7 19.8807 7 18.5V15.5C7 14.6716 6.32843 14 5.5 14H2.5C1.11929 14 0 12.8807 0 11.5V9.5C0 8.11929 1.11929 7 2.5 7H5.5C6.32843 7 7 6.32843 7 5.5V2.5ZM9.5 1C8.6716 1 8 1.67157 8 2.5V5.5C8 6.88071 6.88071 8 5.5 8H2.5C1.67157 8 1 8.6716 1 9.5V11.5C1 12.3284 1.67157 13 2.5 13H5.5C6.88071 13 8 14.1193 8 15.5V18.5C8 19.3284 8.6716 20 9.5 20H11.5C12.3284 20 13 19.3284 13 18.5V15.5C13 14.1193 14.1193 13 15.5 13H18.5C19.3284 13 20 12.3284 20 11.5V9.5C20 8.6716 19.3284 8 18.5 8H15.5C14.1193 8 13 6.88071 13 5.5V2.5C13 1.67157 12.3284 1 11.5 1H9.5Z" fill="#484C52"/>
</svg>
