<svg width="21" height="20" viewBox="0 0 21 20" fill="none" xmlns="http://www.w3.org/2000/svg">
<path fill-rule="evenodd" clip-rule="evenodd" d="M6.91667 2.57143C6.91667 1.28934 7.98266 0.25 9.29762 0.25H11.2024C12.5173 0.25 13.5833 1.28934 13.5833 2.57143V5.35714C13.5833 6.1264 14.223 6.75 15.0119 6.75H17.869C19.184 6.75 20.25 7.78934 20.25 9.07143V10.9286C20.25 12.2107 19.184 13.25 17.869 13.25H15.0119C14.223 13.25 13.5833 13.8736 13.5833 14.6429V17.4286C13.5833 18.7107 12.5173 19.75 11.2024 19.75H9.29762C7.98266 19.75 6.91667 18.7107 6.91667 17.4286V14.6429C6.91667 13.8736 6.27708 13.25 5.4881 13.25H2.63095C1.31599 13.25 0.25 12.2107 0.25 10.9286V9.07143C0.25 7.78934 1.31599 6.75 2.63095 6.75H5.4881C6.27708 6.75 6.91667 6.1264 6.91667 5.35714V2.57143ZM9.29762 1.17857C8.50867 1.17857 7.86905 1.80217 7.86905 2.57143V5.35714C7.86905 6.63923 6.80306 7.67857 5.4881 7.67857H2.63095C1.84197 7.67857 1.20238 8.3022 1.20238 9.07143V10.9286C1.20238 11.6978 1.84197 12.3214 2.63095 12.3214H5.4881C6.80306 12.3214 7.86905 13.3608 7.86905 14.6429V17.4286C7.86905 18.1978 8.50867 18.8214 9.29762 18.8214H11.2024C11.9913 18.8214 12.631 18.1978 12.631 17.4286V14.6429C12.631 13.3608 13.697 12.3214 15.0119 12.3214H17.869C18.658 12.3214 19.2976 11.6978 19.2976 10.9286V9.07143C19.2976 8.3022 18.658 7.67857 17.869 7.67857H15.0119C13.697 7.67857 12.631 6.63923 12.631 5.35714V2.57143C12.631 1.80217 11.9913 1.17857 11.2024 1.17857H9.29762Z" fill="#484C52" stroke="#484C52" stroke-width="0.5"/>
</svg>
