<svg width="16" height="16" viewBox="0 0 16 16" fill="none" xmlns="http://www.w3.org/2000/svg">
<path d="M7.99982 0C12.7998 0 15.6948 5.316 13.0898 9.348L10.9998 12.584V14C10.9999 14.4952 10.8163 14.9728 10.4846 15.3404C10.1528 15.708 9.69643 15.9395 9.20382 15.99L8.99982 16H6.99982L6.79582 15.99C6.30322 15.9395 5.84686 15.708 5.51509 15.3404C5.18332 14.9728 4.99972 14.4952 4.99982 14V12.584L2.90982 9.348C0.303823 5.315 3.19982 0 7.99982 0ZM6.49982 14C6.49982 14.1326 6.5525 14.2598 6.64627 14.3536C6.74004 14.4473 6.86721 14.5 6.99982 14.5H8.99982C9.13243 14.5 9.25961 14.4473 9.35338 14.3536C9.44714 14.2598 9.49982 14.1326 9.49982 14V13.5H6.49982V14ZM7.99982 1.5C4.38782 1.5 2.20982 5.5 4.16982 8.533L6.40782 12H9.59182L11.8298 8.533C13.7898 5.5 11.6118 1.5 7.99982 1.5ZM7.43482 3.9C7.47646 3.78349 7.5531 3.6827 7.65425 3.61144C7.75539 3.54018 7.8761 3.50193 7.99982 3.50193C8.12355 3.50193 8.24425 3.54018 8.3454 3.61144C8.44654 3.6827 8.52318 3.78349 8.56482 3.9L9.00182 5.133C9.03167 5.21717 9.07992 5.29361 9.14306 5.35676C9.20621 5.4199 9.28266 5.46816 9.36682 5.498L10.6008 5.936C10.7171 5.97759 10.8177 6.05411 10.8888 6.15507C10.9599 6.25603 10.9981 6.37651 10.9981 6.5C10.9981 6.62349 10.9599 6.74397 10.8888 6.84493C10.8177 6.94589 10.7171 7.02241 10.6008 7.064L9.36682 7.502C9.28266 7.53184 9.20621 7.5801 9.14306 7.64324C9.07992 7.70639 9.03167 7.78283 9.00182 7.867L8.56482 9.101C8.52318 9.21751 8.44654 9.3183 8.3454 9.38956C8.24425 9.46082 8.12355 9.49907 7.99982 9.49907C7.8761 9.49907 7.75539 9.46082 7.65425 9.38956C7.5531 9.3183 7.47646 9.21751 7.43482 9.101L6.99782 7.867C6.96798 7.78283 6.91973 7.70639 6.85658 7.64324C6.79344 7.5801 6.71699 7.53184 6.63282 7.502L5.39982 7.064C5.28355 7.02241 5.18297 6.94589 5.11186 6.84493C5.04075 6.74397 5.00258 6.62349 5.00258 6.5C5.00258 6.37651 5.04075 6.25603 5.11186 6.15507C5.18297 6.05411 5.28355 5.97759 5.39982 5.936L6.63282 5.498C6.71699 5.46816 6.79344 5.4199 6.85658 5.35676C6.91973 5.29361 6.96798 5.21717 6.99782 5.133L7.43482 3.9Z" fill="#539DF3"/>
</svg>
