<svg width="24" height="24" viewBox="0 0 24 24" fill="none" xmlns="http://www.w3.org/2000/svg">
<g clip-path="url(#clip0_124_157)">
<path d="M12 23.25C5.79675 23.25 0.75 18.2033 0.75 12C0.75 5.79675 5.79675 0.75 12 0.75C18.2033 0.75 23.25 5.79675 23.25 12C23.25 18.2033 18.2033 23.25 12 23.25ZM12 1.5C6.21 1.5 1.5 6.21 1.5 12C1.5 17.79 6.21 22.5 12 22.5C17.79 22.5 22.5 17.79 22.5 12C22.5 6.21 17.79 1.5 12 1.5Z" fill="#484C52"/>
<path d="M17.73 15.5349L14.1585 14.2959L13.9163 12.3579C13.755 12.5882 13.524 12.7674 13.2233 12.8612L13.443 14.6199C13.4602 14.7617 13.557 14.8817 13.692 14.9274L17.4833 16.2444C18.1583 16.4799 18.75 17.3147 18.75 18.0302V18.0249C18.75 18.2319 18.918 18.3999 19.125 18.3999C19.3313 18.3999 19.4993 18.2327 19.5 18.0264C19.4978 16.9922 18.705 15.8762 17.73 15.5349ZM4.875 18.3992C4.668 18.3992 4.5 18.2312 4.5 18.0242V18.0294C4.5 16.9952 5.29425 15.8762 6.26925 15.5349L9.84075 14.3042L9.84975 14.0942C9.87525 13.8887 10.0665 13.7454 10.269 13.7687C10.4738 13.7942 10.62 13.9817 10.5945 14.1879L10.5562 14.6297C10.539 14.7714 10.4415 14.8907 10.3065 14.9372L6.516 16.2437C5.84175 16.4799 5.25 17.3147 5.25 18.0294V18.0242C5.25 18.2319 5.082 18.3992 4.875 18.3992Z" fill="#484C52"/>
<path d="M11.9999 13.5293C9.91564 13.5293 8.85589 12.1463 8.84914 8.67755C8.84764 7.79705 8.94139 6.9053 9.76939 6.0758C10.2966 5.54705 11.0466 5.2793 11.9999 5.2793C12.9531 5.2793 13.7031 5.54705 14.2311 6.07655C15.0591 6.9053 15.1529 7.7978 15.1514 8.6783C15.1439 12.1463 14.0841 13.5293 11.9999 13.5293ZM11.9999 6.0293C11.2431 6.0293 10.6874 6.2183 10.2996 6.60605C9.82564 7.0808 9.59614 7.50605 9.59839 8.6768C9.60439 11.6903 10.3896 12.78 11.9991 12.78C13.6086 12.78 14.3939 11.6903 14.3999 8.6768C14.4021 7.50605 14.1726 7.0808 13.6986 6.60605C13.3124 6.2183 12.7566 6.0293 11.9999 6.0293Z" fill="#484C52"/>
</g>
<defs>
<clipPath id="clip0_124_157">
<rect width="24" height="24" fill="white"/>
</clipPath>
</defs>
</svg>
