<svg width="17" height="20" viewBox="0 0 17 20" fill="none" xmlns="http://www.w3.org/2000/svg">
<path d="M13.7305 19.75H2.76953C2.10131 19.75 1.46046 19.4916 0.987952 19.0315C0.515449 18.5715 0.25 17.9476 0.25 17.297V16.4856C0.25 12.5913 3.83881 9.4211 8.25 9.4211C12.6612 9.4211 16.25 12.5893 16.25 16.4856V17.297C16.25 17.9476 15.9846 18.5715 15.512 19.0315C15.0395 19.4916 14.3987 19.75 13.7305 19.75ZM8.25 10.4042C4.39412 10.4042 1.25781 13.1319 1.25781 16.4876V17.299C1.25781 17.6893 1.41708 18.0637 1.70058 18.3397C1.98408 18.6157 2.36859 18.7708 2.76953 18.7708H13.7305C14.1314 18.7708 14.5159 18.6157 14.7994 18.3397C15.0829 18.0637 15.2422 17.6893 15.2422 17.299V16.4856C15.2422 13.1319 12.1059 10.4042 8.25 10.4042ZM8.25 7.95031C7.4678 7.95051 6.70311 7.72486 6.05264 7.30192C5.40217 6.87898 4.89514 6.27773 4.59566 5.57423C4.29619 4.87072 4.21773 4.09655 4.37021 3.34963C4.52269 2.60271 4.89925 1.91659 5.45228 1.37803C6.0053 0.839481 6.70995 0.472692 7.47711 0.324053C8.24426 0.175415 9.03946 0.251603 9.76214 0.542983C10.4848 0.834364 11.1025 1.32785 11.5371 1.96102C11.9717 2.5942 12.2036 3.33863 12.2036 4.10016C12.2028 5.12087 11.7861 6.09957 11.0448 6.82142C10.3036 7.54327 9.29842 7.94927 8.25 7.95031ZM8.25 1.23216C7.66709 1.23197 7.09721 1.40009 6.61245 1.71526C6.12769 2.03044 5.74983 2.4785 5.52666 3.00278C5.3035 3.52705 5.24506 4.10399 5.35873 4.66061C5.4724 5.21722 5.75308 5.72852 6.16526 6.12981C6.57745 6.5311 7.10262 6.80436 7.67434 6.91503C8.24607 7.0257 8.83866 6.9688 9.37716 6.75154C9.91567 6.53427 10.3759 6.16639 10.6996 5.69444C11.0233 5.22249 11.196 4.66767 11.1958 4.10016C11.195 3.33976 10.8844 2.61072 10.3321 2.07304C9.77986 1.53536 9.03104 1.23294 8.25 1.23216Z" fill="#484C52" stroke="#484C52" stroke-width="0.5"/>
</svg>
